<?xml version="1.0" standalone="no"?>
<!DOCTYPE svg PUBLIC "-//W3C//DTD SVG 20010904//EN"
 "http://www.w3.org/TR/2001/REC-SVG-20010904/DTD/svg10.dtd">
<svg version="1.0" xmlns="http://www.w3.org/2000/svg"
 width="260.000000pt" height="260.000000pt" viewBox="0 0 260.000000 260.000000"
 preserveAspectRatio="xMidYMid meet">
<g transform="translate(0.000000,260.000000) scale(0.100000,-0.100000)"
fill="#000000" stroke="none">
<path d="M243 2586 c-88 -28 -176 -107 -216 -194 l-22 -47 -2 -1035 c-2 -1003
-1 -1037 17 -1085 28 -71 108 -157 178 -192 l57 -28 1050 0 1050 0 44 23 c66
36 137 108 168 171 l28 56 0 1045 0 1045 -22 47 c-30 66 -105 143 -172 175
l-56 28 -1030 2 c-828 1 -1038 -1 -1072 -11z"/>
</g>
</svg>
